<svg width="16" height="16" viewBox="0 0 16 16" fill="none" xmlns="http://www.w3.org/2000/svg">
<path d="M0 7.5C0 9.2 0.603125 10.7687 1.62188 12.0281L0.096875 14.8219C0.034375 14.9375 0 15.0687 0 15.2031C0 15.6438 0.35625 16 0.796875 16C0.921875 16 1.04062 15.9813 1.15625 15.9344L4.79375 14.375C5.775 14.7781 6.85938 15 8 15C12.4187 15 16 11.6406 16 7.5C16 3.35938 12.4187 0 8 0C3.58125 0 0 3.35938 0 7.5ZM2.9375 12.7469C3.22813 12.2125 3.16875 11.5563 2.7875 11.0844C1.97187 10.075 1.5 8.8375 1.5 7.5C1.5 4.275 4.31875 1.5 8 1.5C11.6813 1.5 14.5 4.275 14.5 7.5C14.5 10.725 11.6813 13.5 8 13.5C7.05625 13.5 6.16562 13.3156 5.36562 12.9875C4.99375 12.8344 4.575 12.8375 4.20625 12.9969L2.375 13.7781L2.9375 12.7469ZM4.5 8.5C5.05313 8.5 5.5 8.05313 5.5 7.5C5.5 6.94687 5.05313 6.5 4.5 6.5C3.94687 6.5 3.5 6.94687 3.5 7.5C3.5 8.05313 3.94687 8.5 4.5 8.5ZM9 7.5C9 6.94687 8.55313 6.5 8 6.5C7.44687 6.5 7 6.94687 7 7.5C7 8.05313 7.44687 8.5 8 8.5C8.55313 8.5 9 8.05313 9 7.5ZM11.5 8.5C12.0531 8.5 12.5 8.05313 12.5 7.5C12.5 6.94687 12.0531 6.5 11.5 6.5C10.9469 6.5 10.5 6.94687 10.5 7.5C10.5 8.05313 10.9469 8.5 11.5 8.5Z" fill="#9CA3AF"/>
</svg>
