<svg width="25" height="25" viewBox="0 0 25 25" fill="none" xmlns="http://www.w3.org/2000/svg">
<path d="M18.501 0.5C21.7531 0.500001 24.5 3.53751 24.5 7.42773V7.57227C24.5 10.5409 22.8704 13.8169 20.7334 16.7832C18.6078 19.7336 16.0366 22.3001 14.2754 23.8359C13.7631 24.2792 13.1388 24.5 12.5 24.5C11.8572 24.5 11.2301 24.2824 10.7266 23.8379L10.7246 23.8359L10.0283 23.2129C8.32738 21.6523 6.12642 19.3648 4.2666 16.7832C2.12963 13.8169 0.5 10.5409 0.5 7.57227V7.42773C0.5 3.53751 3.24693 0.5 6.49902 0.5C8.39412 0.5 10.2054 1.53989 11.3447 3.3418L11.3457 3.34277L12.0781 4.49805L12.5 5.16406L12.9219 4.49805L13.6543 3.34277L13.6553 3.3418C14.7946 1.53989 16.6059 0.5 18.501 0.5Z" stroke="#333333"/>
</svg>
