<svg width="512" height="513" viewBox="0 0 512 513" fill="none" xmlns="http://www.w3.org/2000/svg">
<path d="M352.874 21.2L307.974 66.1L445.874 204L490.774 159.1C504.374 145.6 511.974 127.2 511.974 108C511.974 88.8 504.374 70.4 490.774 56.9L455.074 21.2C441.574 7.6 423.174 0 403.974 0C384.774 0 366.374 7.6 352.874 21.2ZM274.074 100L58.8738 315.1C48.1738 325.8 40.3738 339.2 36.2738 353.8L0.873762 481.6C-1.42624 489.9 0.87376 498.9 7.07376 505C13.2738 511.1 22.1738 513.5 30.4738 511.2L158.274 475.7C172.874 471.6 186.174 463.9 196.974 453.1L411.974 237.9L274.074 100Z" fill="#9CA3AF"/>
</svg>
