<svg width="17" height="17" viewBox="0 0 17 17" fill="none" xmlns="http://www.w3.org/2000/svg">
<path d="M1.96896 0C0.882957 0 0 0.896875 0 2V14C0 15.1031 0.882957 16 1.96896 16H6.46681L6.80215 14.2969C6.93444 13.6187 7.26363 12.9969 7.74356 12.5094L11.8107 8.37813V5.33125C11.8107 4.8 11.6046 4.29063 11.2354 3.91563L7.95892 0.584375C7.58974 0.209375 7.08827 0 6.56834 0H1.96896ZM10.014 5.5H7.13749C6.72832 5.5 6.39913 5.16563 6.39913 4.75V1.82812L10.014 5.5ZM8.25119 14.5906L7.88508 16.4531C7.87893 16.4812 7.87585 16.5125 7.87585 16.5438C7.87585 16.7938 8.07583 17 8.32502 17C8.35579 17 8.38348 16.9969 8.41424 16.9906L10.2478 16.6187C10.6293 16.5406 10.98 16.35 11.2539 16.0719L14.9118 12.3562L12.4506 9.85625L8.79265 13.5719C8.51884 13.85 8.33118 14.2063 8.25426 14.5938L8.25119 14.5906ZM16.4901 10.7469C17.17 10.0562 17.17 8.9375 16.4901 8.24687C15.8102 7.55625 14.7088 7.55625 14.0289 8.24687L13.1428 9.14688L15.604 11.6469L16.4901 10.7469Z" fill="white"/>
</svg>
