<svg width="448" height="528" viewBox="0 0 448 528" fill="none" xmlns="http://www.w3.org/2000/svg">
<path d="M136.7 21.9C141.1 8.8 153.3 0 167.1 0H281C294.8 0 307 8.8 311.4 21.9L320 48H416C433.7 48 448 62.3 448 80C448 97.7 433.7 112 416 112H32C14.3 112 0 97.7 0 80C0 62.3 14.3 48 32 48H128L136.7 21.9ZM32 160H416V464C416 499.3 387.3 528 352 528H96C60.7 528 32 499.3 32 464V160ZM120 224C106.7 224 96 234.7 96 248V440C96 453.3 106.7 464 120 464C133.3 464 144 453.3 144 440V248C144 234.7 133.3 224 120 224ZM224 224C210.7 224 200 234.7 200 248V440C200 453.3 210.7 464 224 464C237.3 464 248 453.3 248 440V248C248 234.7 237.3 224 224 224ZM328 224C314.7 224 304 234.7 304 248V440C304 453.3 314.7 464 328 464C341.3 464 352 453.3 352 440V248C352 234.7 341.3 224 328 224Z" fill="#F14141"/>
</svg>
