<svg viewBox="0 0 80 80" fill="none" xmlns="http://www.w3.org/2000/svg">
  <defs>
    <linearGradient id="bg" x1="0" y1="0" x2="1" y2="1">
      <stop offset="0%" stop-color="#EEF0FF"/>
      <stop offset="100%" stop-color="#DDE1FF"/>
    </linearGradient>
    <linearGradient id="doc" x1="0" y1="0" x2="0" y2="1">
      <stop offset="0%" stop-color="#D0D8FF"/>
      <stop offset="100%" stop-color="#B3C5FF"/>
    </linearGradient>
  </defs>
  <circle cx="40" cy="40" r="40" fill="#F7F7FB"/>
  <g transform="translate(40,40) scale(1.2) translate(-40,-40)">
  <!-- Drop shadow -->
  <rect x="27" y="20" width="28" height="38" rx="4" fill="#B3C5FF" opacity="0.35"/>
  <!-- Document body (centered at ~40,39) -->
  <rect x="25" y="17" width="28" height="38" rx="4" fill="url(#doc)"/>
  <!-- Clipboard top clip -->
  <rect x="31" y="14" width="16" height="7" rx="3.5" fill="#87A3FF"/>
  <rect x="34" y="13" width="10" height="5" rx="2.5" fill="#4359FC"/>
  <!-- Row 1: checked -->
  <circle cx="32" cy="28" r="4" fill="#4359FC"/>
  <path d="M30 28 L31.5 29.5 L34.5 26" stroke="#fff" stroke-width="1.8" stroke-linecap="round" stroke-linejoin="round" fill="none"/>
  <rect x="39" y="26.5" width="10" height="3" rx="1.5" fill="#F0F2FF"/>
  <!-- Row 2: checked -->
  <circle cx="32" cy="38" r="4" fill="#4359FC"/>
  <path d="M30 38 L31.5 39.5 L34.5 36" stroke="#fff" stroke-width="1.8" stroke-linecap="round" stroke-linejoin="round" fill="none"/>
  <rect x="39" y="36.5" width="8" height="3" rx="1.5" fill="#F0F2FF"/>
  <!-- Row 3: pending -->
  <circle cx="32" cy="48" r="4" fill="#87A3FF" opacity="0.55"/>
  <rect x="39" y="46.5" width="11" height="3" rx="1.5" fill="#C5CAFF"/>
  <!-- Pen (bottom-right, partially outside doc) -->
  <g transform="translate(56,57) rotate(-40)">
    <rect x="-4" y="-20" width="8" height="5" rx="1.5" fill="#87A3FF"/>
    <rect x="-4" y="-15" width="8" height="2.5" fill="#809EFD"/>
    <rect x="-4" y="-12.5" width="8" height="18" rx="1" fill="#4359FC"/>
    <rect x="-1.5" y="-12" width="3" height="16" rx="1" fill="#6B82FD" opacity="0.4"/>
    <path d="M-4 5.5 L0 12 L4 5.5 Z" fill="#3044DA"/>
  </g>
  </g>
</svg>
