<svg viewBox="0 0 80 80" fill="none" xmlns="http://www.w3.org/2000/svg">
  <defs>
    <linearGradient id="bg" x1="0" y1="0" x2="1" y2="1">
      <stop offset="0%" stop-color="#EEF0FF"/>
      <stop offset="100%" stop-color="#DDE1FF"/>
    </linearGradient>
    <linearGradient id="cup" x1="0.2" y1="0" x2="0.8" y2="1">
      <stop offset="0%" stop-color="#A8B8FF"/>
      <stop offset="100%" stop-color="#809EFD"/>
    </linearGradient>
    <linearGradient id="shine" x1="0" y1="0" x2="0" y2="1">
      <stop offset="0%" stop-color="#D8DFFF"/>
      <stop offset="100%" stop-color="#B3C5FF"/>
    </linearGradient>
    <linearGradient id="base" x1="0" y1="0" x2="0" y2="1">
      <stop offset="0%" stop-color="#5568FF"/>
      <stop offset="100%" stop-color="#4359FC"/>
    </linearGradient>
  </defs>
  <circle cx="40" cy="40" r="40" fill="#F7F7FB"/>
  <!-- Shadow -->
  <path d="M29 17 H51 L48 41 C48 46 44 50 40 50 C36 50 32 46 32 41 Z" fill="#B3C5FF" opacity="0.3" transform="translate(2,2)"/>
  <!-- Cup body -->
  <path d="M29 17 H51 L48 41 C48 46 44 50 40 50 C36 50 32 46 32 41 Z" fill="url(#cup)"/>
  <!-- Inner shine -->
  <path d="M33 17 H47 L45 39 C45 42.5 43 45 40 45 C37 45 35 42.5 35 39 Z" fill="url(#shine)"/>
  <!-- Left handle outer -->
  <path d="M29 22 C21 22 17 28 17 33 C17 38 21 40 28 40" stroke="#87A3FF" stroke-width="4.5" fill="none" stroke-linecap="round"/>
  <!-- Left handle inner -->
  <path d="M29 22 C23 22 20 27 20 32 C20 36 22 38 28 38" stroke="#C5CAFF" stroke-width="2" fill="none" stroke-linecap="round"/>
  <!-- Right handle outer -->
  <path d="M51 22 C59 22 63 28 63 33 C63 38 59 40 52 40" stroke="#87A3FF" stroke-width="4.5" fill="none" stroke-linecap="round"/>
  <!-- Right handle inner -->
  <path d="M51 22 C57 22 60 27 60 32 C60 36 58 38 52 38" stroke="#C5CAFF" stroke-width="2" fill="none" stroke-linecap="round"/>
  <!-- Stem -->
  <rect x="36.5" y="50" width="7" height="7" fill="#87A3FF"/>
  <rect x="37.5" y="50" width="4" height="7" fill="#C5CAFF" opacity="0.5"/>
  <!-- Base shadow -->
  <rect x="27" y="59" width="26" height="7" rx="3" fill="#3044DA" opacity="0.2" transform="translate(1,1)"/>
  <!-- Base -->
  <rect x="27" y="57" width="26" height="7" rx="3" fill="url(#base)"/>
  <rect x="27" y="57" width="26" height="3.5" rx="3" fill="#6B80FF" opacity="0.45"/>
  <!-- Star -->
  <path d="M40 23 L41.7 28 H47 L42.7 31 L44.3 36 L40 33 L35.7 36 L37.3 31 L33 28 H38.3 Z" fill="#4359FC"/>
  <path d="M40 23 L41.7 28 H45.5 L42.7 30.5 L43.8 34.5 L40 32" fill="#6B80FF" opacity="0.55"/>
  <!-- Sparkles -->
  <circle cx="18" cy="19" r="2.5" fill="#C5CAFF" opacity="0.8"/>
  <circle cx="63" cy="17" r="2" fill="#C5CAFF" opacity="0.75"/>
  <circle cx="65" cy="55" r="1.5" fill="#B3C5FF" opacity="0.6"/>
  <path d="M16 54 L17.5 57.5 L16 61 L14.5 57.5 Z" fill="#B3C5FF" opacity="0.6"/>
</svg>
