<svg width="16" height="16" viewBox="0 0 16 16" fill="none" xmlns="http://www.w3.org/2000/svg">
<path d="M11.2004 3.20002C11.2004 2.75752 10.8429 2.40002 10.4004 2.40002H5.60039C5.15789 2.40002 4.80039 2.75752 4.80039 3.20002C4.80039 3.64252 5.15789 4.00002 5.60039 4.00002H10.4004C10.8429 4.00002 11.2004 3.64252 11.2004 3.20002ZM13.6004 6.40002C13.6004 5.95752 13.2429 5.60002 12.8004 5.60002H3.20039C2.75789 5.60002 2.40039 5.95752 2.40039 6.40002C2.40039 6.84252 2.75789 7.20002 3.20039 7.20002H12.8004C13.2429 7.20002 13.6004 6.84252 13.6004 6.40002ZM2.40039 12.8C2.40039 13.2425 2.75789 13.6 3.20039 13.6H12.8004C13.2429 13.6 13.6004 13.2425 13.6004 12.8C13.6004 12.3575 13.2429 12 12.8004 12H3.20039C2.75789 12 2.40039 12.3575 2.40039 12.8ZM11.2004 9.60002C11.2004 9.15752 10.8429 8.80002 10.4004 8.80002H5.60039C5.15789 8.80002 4.80039 9.15752 4.80039 9.60002C4.80039 10.0425 5.15789 10.4 5.60039 10.4H10.4004C10.8429 10.4 11.2004 10.0425 11.2004 9.60002Z" fill="#9CA3AF"/>
</svg>
