<svg width="16" height="16" viewBox="0 0 16 16" fill="none" xmlns="http://www.w3.org/2000/svg">
<path d="M13.6004 3.20002C13.6004 2.75752 13.2429 2.40002 12.8004 2.40002H3.20039C2.75789 2.40002 2.40039 2.75752 2.40039 3.20002C2.40039 3.64252 2.75789 4.00002 3.20039 4.00002H12.8004C13.2429 4.00002 13.6004 3.64252 13.6004 3.20002ZM13.6004 9.60002C13.6004 9.15752 13.2429 8.80002 12.8004 8.80002H3.20039C2.75789 8.80002 2.40039 9.15752 2.40039 9.60002C2.40039 10.0425 2.75789 10.4 3.20039 10.4H12.8004C13.2429 10.4 13.6004 10.0425 13.6004 9.60002ZM2.40039 6.40002C2.40039 6.84252 2.75789 7.20002 3.20039 7.20002H12.8004C13.2429 7.20002 13.6004 6.84252 13.6004 6.40002C13.6004 5.95752 13.2429 5.60002 12.8004 5.60002H3.20039C2.75789 5.60002 2.40039 5.95752 2.40039 6.40002ZM13.6004 12.8C13.6004 12.3575 13.2429 12 12.8004 12H3.20039C2.75789 12 2.40039 12.3575 2.40039 12.8C2.40039 13.2425 2.75789 13.6 3.20039 13.6H12.8004C13.2429 13.6 13.6004 13.2425 13.6004 12.8Z" fill="#9CA3AF"/>
</svg>
