<svg width="16" height="16" viewBox="0 0 16 16" fill="none" xmlns="http://www.w3.org/2000/svg">
<path d="M13.6004 3.20002C13.6004 3.64252 13.2429 4.00002 12.8004 4.00002H7.20039C6.75789 4.00002 6.40039 3.64252 6.40039 3.20002C6.40039 2.75752 6.75789 2.40002 7.20039 2.40002H12.8004C13.2429 2.40002 13.6004 2.75752 13.6004 3.20002ZM13.6004 9.60002C13.6004 10.0425 13.2429 10.4 12.8004 10.4H7.20039C6.75789 10.4 6.40039 10.0425 6.40039 9.60002C6.40039 9.15752 6.75789 8.80002 7.20039 8.80002H12.8004C13.2429 8.80002 13.6004 9.15752 13.6004 9.60002ZM2.40039 6.40002C2.40039 5.95752 2.75789 5.60002 3.20039 5.60002H12.8004C13.2429 5.60002 13.6004 5.95752 13.6004 6.40002C13.6004 6.84252 13.2429 7.20002 12.8004 7.20002H3.20039C2.75789 7.20002 2.40039 6.84252 2.40039 6.40002ZM13.6004 12.8C13.6004 13.2425 13.2429 13.6 12.8004 13.6H3.20039C2.75789 13.6 2.40039 13.2425 2.40039 12.8C2.40039 12.3575 2.75789 12 3.20039 12H12.8004C13.2429 12 13.6004 12.3575 13.6004 12.8Z" fill="#9CA3AF"/>
</svg>
