<svg width="16" height="16" viewBox="0 0 16 16" fill="none" xmlns="http://www.w3.org/2000/svg">
<path d="M4.0002 2.40002C3.5577 2.40002 3.2002 2.75752 3.2002 3.20002C3.2002 3.64252 3.5577 4.00002 4.0002 4.00002H4.8002V12H4.0002C3.5577 12 3.2002 12.3575 3.2002 12.8C3.2002 13.2425 3.5577 13.6 4.0002 13.6H9.6002C11.3677 13.6 12.8002 12.1675 12.8002 10.4C12.8002 9.23752 12.1802 8.21752 11.2502 7.65752C11.7177 7.10002 12.0002 6.38252 12.0002 5.60002C12.0002 3.83252 10.5677 2.40002 8.8002 2.40002H4.0002ZM10.4002 5.60002C10.4002 6.48252 9.6827 7.20002 8.8002 7.20002H6.4002V4.00002H8.8002C9.6827 4.00002 10.4002 4.71752 10.4002 5.60002ZM6.4002 12V8.80002H9.6002C10.4827 8.80002 11.2002 9.51752 11.2002 10.4C11.2002 11.2825 10.4827 12 9.6002 12H6.4002Z" fill="#9CA3AF"/>
</svg>
