<svg width="20" height="20" viewBox="0 0 20 20" fill="none" xmlns="http://www.w3.org/2000/svg">
<path d="M5 4.5C4.725 4.5 4.5 4.725 4.5 5V15C4.5 15.275 4.725 15.5 5 15.5H15C15.275 15.5 15.5 15.275 15.5 15V5C15.5 4.725 15.275 4.5 15 4.5H5ZM3 5C3 3.89688 3.89688 3 5 3H15C16.1031 3 17 3.89688 17 5V15C17 16.1031 16.1031 17 15 17H5C3.89688 17 3 16.1031 3 15V5ZM7 6C7.55313 6 8 6.44688 8 7C8 7.55313 7.55313 8 7 8C6.44688 8 6 7.55313 6 7C6 6.44688 6.44688 6 7 6ZM11.25 8.25C11.5156 8.25 11.7625 8.39063 11.8969 8.61875L14.3969 12.8688C14.5344 13.1 14.5344 13.3875 14.4 13.6219C14.2656 13.8563 14.0188 14 13.75 14H6.25C5.97188 14 5.7125 13.8438 5.58438 13.5969C5.45625 13.35 5.475 13.05 5.63438 12.8219L7.38438 10.3219C7.525 10.1219 7.75313 10.0031 8 10.0031C8.24688 10.0031 8.475 10.1219 8.61563 10.3219L9.15313 11.0906L10.6063 8.62188C10.7406 8.39375 10.9875 8.25313 11.2531 8.25313L11.25 8.25Z" fill="#9CA3AF"/>
</svg>
