<svg width="16" height="16" viewBox="0 0 16 16" fill="none" xmlns="http://www.w3.org/2000/svg">
<path d="M8 2.25C4.5 2.25 2.25 4.375 2.25 7.25C2.25 9.125 3.25 10.625 4.875 11.375C4.75 12.25 4.375 13.125 3.75 13.875C3.625 14 3.625 14.25 3.875 14.25C5.375 14 6.625 13.375 7.625 12.5C7.75 12.5 7.875 12.5 8 12.5C11.5 12.5 13.75 10.375 13.75 7.5C13.75 4.625 11.5 2.25 8 2.25Z" stroke="#E5E7EB" stroke-width="2" stroke-linecap="round" stroke-linejoin="round"/>
<path d="M6.125 8C6.47018 8 6.75 7.72018 6.75 7.375C6.75 7.02982 6.47018 6.75 6.125 6.75C5.77982 6.75 5.5 7.02982 5.5 7.375C5.5 7.72018 5.77982 8 6.125 8Z" fill="#E5E7EB"/>
<path d="M8 8C8.34518 8 8.625 7.72018 8.625 7.375C8.625 7.02982 8.34518 6.75 8 6.75C7.65482 6.75 7.375 7.02982 7.375 7.375C7.375 7.72018 7.65482 8 8 8Z" fill="#E5E7EB"/>
<path d="M9.875 8C10.2202 8 10.5 7.72018 10.5 7.375C10.5 7.02982 10.2202 6.75 9.875 6.75C9.52982 6.75 9.25 7.02982 9.25 7.375C9.25 7.72018 9.52982 8 9.875 8Z" fill="#E5E7EB"/>
</svg>
