<svg width="20" height="20" viewBox="0 0 20 20" fill="none" xmlns="http://www.w3.org/2000/svg">
<path d="M15.5875 7.82812L16.9156 6.5H18C18.5531 6.5 19 6.05313 19 5.5V3.5C19 2.94687 18.5531 2.5 18 2.5H7.9875C7.08125 2.5 6.19687 2.79062 5.46562 3.32812L1.50937 6.24375C0.953125 6.65313 0.834375 7.43437 1.24375 7.99062C1.65312 8.54687 2.43437 8.66563 2.99062 8.25625L6.73125 5.5H10.25C10.6656 5.5 11 5.83437 11 6.25C11 6.66563 10.6656 7 10.25 7H8C7.44687 7 7 7.44687 7 8C7 8.55313 7.44687 9 8 9H12.7563C13.8156 9 14.8344 8.57812 15.5844 7.82812H15.5875ZM4.41563 12.1719L3.08437 13.5H2C1.44687 13.5 1 13.9469 1 14.5V16.5C1 17.0531 1.44687 17.5 2 17.5H12.0156C12.9219 17.5 13.8063 17.2094 14.5375 16.6719L18.4937 13.7563C19.05 13.3469 19.1687 12.5656 18.7594 12.0094C18.35 11.4531 17.5688 11.3344 17.0125 11.7437L13.2688 14.5H9.75C9.33437 14.5 9 14.1656 9 13.75C9 13.3344 9.33437 13 9.75 13H12C12.5531 13 13 12.5531 13 12C13 11.4469 12.5531 11 12 11H7.24375C6.18438 11 5.16563 11.4219 4.41563 12.1719Z" fill="#9CA3AF"/>
</svg>
