<svg width="8" height="9" viewBox="0 0 8 9" fill="none" xmlns="http://www.w3.org/2000/svg">
<path d="M7.84547 1.05497C8.08086 0.781777 8.04336 0.376006 7.76006 0.149016C7.47675 -0.0779744 7.05596 -0.0418166 6.82056 0.231375L4 3.49562L1.17944 0.231375C0.944041 -0.0418166 0.523248 -0.0779744 0.239942 0.149016C-0.0433647 0.376006 -0.0808612 0.781777 0.154533 1.05497L3.13133 4.5L0.154533 7.94503C-0.0808612 8.21822 -0.0433647 8.62399 0.239942 8.85098C0.523248 9.07797 0.944041 9.04182 1.17944 8.76863L4 5.50438L6.82056 8.76863C7.05596 9.04182 7.47675 9.07797 7.76006 8.85098C8.04336 8.62399 8.08086 8.21822 7.84547 7.94503L4.86867 4.5L7.84547 1.05497Z" fill="white"/>
</svg>
