<svg width="16" height="16" viewBox="0 0 16 16" fill="none" xmlns="http://www.w3.org/2000/svg">
<path d="M4.00039 3.60002C3.78039 3.60002 3.60039 3.78002 3.60039 4.00002V12C3.60039 12.22 3.78039 12.4 4.00039 12.4H12.0004C12.2204 12.4 12.4004 12.22 12.4004 12V4.00002C12.4004 3.78002 12.2204 3.60002 12.0004 3.60002H4.00039ZM2.40039 4.00002C2.40039 3.11752 3.11789 2.40002 4.00039 2.40002H12.0004C12.8829 2.40002 13.6004 3.11752 13.6004 4.00002V12C13.6004 12.8825 12.8829 13.6 12.0004 13.6H4.00039C3.11789 13.6 2.40039 12.8825 2.40039 12V4.00002ZM5.60039 4.80002C6.04289 4.80002 6.40039 5.15752 6.40039 5.60002C6.40039 6.04252 6.04289 6.40002 5.60039 6.40002C5.15789 6.40002 4.80039 6.04252 4.80039 5.60002C4.80039 5.15752 5.15789 4.80002 5.60039 4.80002ZM9.00039 6.60002C9.21289 6.60002 9.41039 6.71252 9.51789 6.89502L11.5179 10.295C11.6279 10.48 11.6279 10.71 11.5204 10.8975C11.4129 11.085 11.2154 11.2 11.0004 11.2H5.00039C4.77789 11.2 4.57039 11.075 4.46789 10.8775C4.36539 10.68 4.38039 10.44 4.50789 10.2575L5.90789 8.25752C6.02039 8.09752 6.20289 8.00253 6.40039 8.00253C6.59789 8.00253 6.78039 8.09752 6.89289 8.25752L7.32289 8.87252L8.48539 6.89752C8.59289 6.71502 8.79039 6.60252 9.00289 6.60252L9.00039 6.60002Z" fill="#9CA3AF"/>
</svg>
