<svg width="16" height="16" viewBox="0 0 16 16" fill="none" xmlns="http://www.w3.org/2000/svg">
<path d="M6.4002 3.20002C6.4002 2.75752 6.7577 2.40002 7.2002 2.40002H12.0002C12.4427 2.40002 12.8002 2.75752 12.8002 3.20002C12.8002 3.64252 12.4427 4.00002 12.0002 4.00002H10.5327L7.2002 12H8.8002C9.2427 12 9.6002 12.3575 9.6002 12.8C9.6002 13.2425 9.2427 13.6 8.8002 13.6H4.0002C3.5577 13.6 3.2002 13.2425 3.2002 12.8C3.2002 12.3575 3.5577 12 4.0002 12H5.4677L8.8002 4.00002H7.2002C6.7577 4.00002 6.4002 3.64252 6.4002 3.20002Z" fill="#9CA3AF"/>
</svg>
