<svg width="38" height="38" viewBox="0 0 38 38" fill="none" xmlns="http://www.w3.org/2000/svg">
<path d="M20.3421 4.35815C19.5999 3.61597 18.3946 3.61597 17.6524 4.35815L10.0524 11.9582C9.3102 12.7003 9.3102 13.9057 10.0524 14.6478C10.7946 15.39 11.9999 15.39 12.7421 14.6478L17.1002 10.2897V22.8C17.1002 23.851 17.9493 24.7 19.0002 24.7C20.0511 24.7 20.9002 23.851 20.9002 22.8V10.2897L25.2583 14.6478C26.0005 15.39 27.2058 15.39 27.948 14.6478C28.6902 13.9057 28.6902 12.7003 27.948 11.9582L20.348 4.35815H20.3421ZM9.5002 24.7C9.5002 23.6491 8.65113 22.8 7.6002 22.8C6.54926 22.8 5.7002 23.6491 5.7002 24.7V28.5C5.7002 31.6469 8.25332 34.2 11.4002 34.2H26.6002C29.7471 34.2 32.3002 31.6469 32.3002 28.5V24.7C32.3002 23.6491 31.4511 22.8 30.4002 22.8C29.3493 22.8 28.5002 23.6491 28.5002 24.7V28.5C28.5002 29.551 27.6511 30.4 26.6002 30.4H11.4002C10.3493 30.4 9.5002 29.551 9.5002 28.5V24.7Z" fill="#9CA3AF"/>
</svg>
