<svg width="28" height="28" viewBox="0 0 28 28" fill="none" xmlns="http://www.w3.org/2000/svg">
<path d="M4 0C1.79375 0 0 1.79375 0 4V24C0 26.2062 1.79375 28 4 28H24C26.2062 28 28 26.2062 28 24V8.83125C28 7.76875 27.5812 6.75 26.8312 6L22 1.16875C21.25 0.41875 20.2313 0 19.1688 0H4ZM6 6C6 4.89375 6.89375 4 8 4H18C19.1063 4 20 4.89375 20 6V10C20 11.1063 19.1063 12 18 12H8C6.89375 12 6 11.1063 6 10V6ZM14 16C16.2062 16 18 17.7938 18 20C18 22.2062 16.2062 24 14 24C11.7938 24 10 22.2062 10 20C10 17.7938 11.7938 16 14 16Z" fill="#4359FC"/>
</svg>
