<svg width="16" height="16" viewBox="0 0 16 16" fill="none" xmlns="http://www.w3.org/2000/svg">
<path d="M4.0001 5.53752C4.0001 3.80502 5.4051 2.40002 7.1376 2.40002H10.8001C11.2426 2.40002 11.6001 2.75752 11.6001 3.20002C11.6001 3.64252 11.2426 4.00002 10.8001 4.00002H7.1376C6.2876 4.00002 5.6001 4.68752 5.6001 5.53752C5.6001 6.31252 6.1776 6.96752 6.9476 7.06252L8.0501 7.20002H13.6001C14.0426 7.20002 14.4001 7.55752 14.4001 8.00002C14.4001 8.44252 14.0426 8.80002 13.6001 8.80002H2.4001C1.9576 8.80002 1.6001 8.44252 1.6001 8.00002C1.6001 7.55752 1.9576 7.20002 2.4001 7.20002H4.4776C4.1751 6.71502 4.0001 6.14502 4.0001 5.53752ZM10.3301 10H11.9676C11.9901 10.1525 12.0026 10.305 12.0026 10.4625C12.0026 12.195 10.5976 13.6 8.8651 13.6H5.2001C4.7576 13.6 4.4001 13.2425 4.4001 12.8C4.4001 12.3575 4.7576 12 5.2001 12H8.8626C9.7126 12 10.4001 11.3125 10.4001 10.4625C10.4001 10.3025 10.3751 10.145 10.3301 10Z" fill="#9CA3AF"/>
</svg>
