<svg width="16" height="16" viewBox="0 0 16 16" fill="none" xmlns="http://www.w3.org/2000/svg">
<path d="M3.2002 2.39998C3.2002 1.95748 3.5577 1.59998 4.0002 1.59998H5.6002C6.0427 1.59998 6.4002 1.95748 6.4002 2.39998C6.4002 2.84248 6.0427 3.19998 5.6002 3.19998V7.19998C5.6002 8.52498 6.6752 9.59998 8.0002 9.59998C9.32519 9.59998 10.4002 8.52498 10.4002 7.19998V3.19998C9.95769 3.19998 9.60019 2.84248 9.60019 2.39998C9.60019 1.95748 9.95769 1.59998 10.4002 1.59998H12.0002C12.4427 1.59998 12.8002 1.95748 12.8002 2.39998C12.8002 2.84248 12.4427 3.19998 12.0002 3.19998V7.19998C12.0002 9.40998 10.2102 11.2 8.0002 11.2C5.7902 11.2 4.0002 9.40998 4.0002 7.19998V3.19998C3.5577 3.19998 3.2002 2.84248 3.2002 2.39998ZM3.2002 13.6C3.2002 13.1575 3.5577 12.8 4.0002 12.8H12.0002C12.4427 12.8 12.8002 13.1575 12.8002 13.6C12.8002 14.0425 12.4427 14.4 12.0002 14.4H4.0002C3.5577 14.4 3.2002 14.0425 3.2002 13.6Z" fill="#9CA3AF"/>
</svg>
