<svg width="15" height="12" viewBox="0 0 15 12" fill="none" xmlns="http://www.w3.org/2000/svg">
<path d="M7.20188 1.2C5.57188 1.2 4.23187 1.94 3.20438 2.8925C2.24188 3.7875 1.57687 4.85 1.23687 5.6C1.57687 6.35 2.24188 7.4125 3.20438 8.3075C4.23187 9.26 5.57188 10 7.20188 10C8.83187 10 10.1719 9.26 11.1994 8.3075C12.1619 7.4125 12.8269 6.35 13.1669 5.6C12.8269 4.85 12.1619 3.7875 11.1994 2.8925C10.1719 1.94 8.83187 1.2 7.20188 1.2ZM2.38687 2.015C3.56437 0.92 5.18188 0 7.20188 0C9.22187 0 10.8394 0.92 12.0169 2.015C13.1869 3.1025 13.9694 4.4 14.3419 5.2925C14.4244 5.49 14.4244 5.71 14.3419 5.9075C13.9694 6.8 13.1869 8.1 12.0169 9.185C10.8394 10.2775 9.22187 11.2 7.20188 11.2C5.18188 11.2 3.56437 10.28 2.38687 9.185C1.21688 8.0975 0.434374 6.8 0.0618749 5.9075C-0.020625 5.71 -0.020625 5.49 0.0618749 5.2925C0.434374 4.4 1.21688 3.1 2.38687 2.015ZM6.35187 2.515C6.62187 2.44 6.90688 2.4025 7.19938 2.4025C7.41937 2.4025 7.63688 2.425 7.84438 2.4675C7.85188 2.47 7.85688 2.47 7.86438 2.4725C9.31187 2.7775 10.3994 4.065 10.3994 5.6025C10.3994 7.37 8.96687 8.8025 7.19938 8.8025C5.65938 8.8025 4.37437 7.715 4.06937 6.2675C4.02437 6.0525 3.99937 5.83 3.99937 5.6025C3.99937 5.3275 4.03437 5.0575 4.09937 4.8025C4.10437 4.785 4.10687 4.77 4.11187 4.755C4.40937 3.67 5.26438 2.815 6.34937 2.5175L6.35187 2.515Z" fill="#CCCCCC"/>
</svg>
