<svg width="40" height="40" viewBox="0 0 40 40" fill="none" xmlns="http://www.w3.org/2000/svg">
<rect width="40" height="40" fill="#EEF1FF"/>
<path fill-rule="evenodd" clip-rule="evenodd" d="M16.1534 15.0354C15.7881 15.0819 15.2357 15.2339 14.8686 15.3886C14.4943 15.5465 14.2144 15.7179 13.439 16.2639C12.2719 17.0857 11.503 17.3975 10.5069 17.4529L10 17.4812L10.026 17.9865C10.1019 19.4588 10.6142 20.8511 11.411 21.7501C11.7808 22.1674 12.1253 22.4394 12.6158 22.7013C12.906 22.8563 13.3926 23.0469 13.498 23.0469C13.5107 23.0469 13.5447 22.9702 13.5736 22.8764C13.6427 22.652 14.647 21.3104 14.8579 21.1608C15.3614 20.8036 16.0954 20.9498 16.5445 21.4967L16.7219 21.7127L16.9481 21.6607C17.389 21.5594 17.9828 21.8094 18.2655 22.2154L18.4005 22.4094L18.7343 22.4068C19.2512 22.4028 19.6813 22.6601 19.8928 23.0998C19.9723 23.265 19.9871 23.273 20.2588 23.2964C20.7735 23.3406 21.1971 23.6315 21.3886 24.0721C21.5806 24.5142 21.5109 24.8182 21.0894 25.3753C20.8744 25.6594 20.8657 25.6813 20.9354 25.7638C21.0358 25.8828 21.3739 25.9672 21.6026 25.9304C21.836 25.8929 22.1014 25.7355 22.2198 25.5644C22.3498 25.3764 22.2767 25.248 21.8737 24.9565C21.6889 24.8228 21.5377 24.6853 21.5377 24.6508C21.5377 24.5526 21.6892 24.4302 21.8106 24.4302C21.8712 24.4302 22.048 24.5262 22.2036 24.6436C22.5472 24.903 22.7368 24.9751 22.9703 24.9351C23.278 24.8823 23.4761 24.742 23.5858 24.4991C23.673 24.3059 23.679 24.256 23.6341 24.0951C23.5827 23.9115 23.3543 23.7057 22.3387 22.9283C21.7238 22.4577 20.3969 21.3845 20.3419 21.3134C20.29 21.2464 20.2902 21.2344 20.3432 21.2344C20.5039 21.2344 21.1417 21.6396 22.4499 22.5725C23.2331 23.1311 23.9496 23.6167 24.0422 23.6517C24.3573 23.7708 24.7479 23.6239 24.9198 23.3216C25.0198 23.1458 25.0362 22.8304 24.9553 22.64C24.9215 22.5605 24.2789 22.0261 23.1916 21.1733C22.2508 20.4354 21.5042 19.8234 21.5326 19.8133C21.6712 19.7637 22.8 20.464 24.4278 21.6093C25.0947 22.0785 25.1228 22.093 25.3668 22.093C25.6613 22.093 25.8644 21.9726 26.0048 21.715C26.1187 21.5059 26.1218 21.1616 26.0115 20.9813C25.9274 20.8441 25.0543 20.1305 23.1487 18.6415C22.1064 17.8272 22.0616 17.7978 21.9027 17.8277C21.628 17.8792 21.424 18.0387 20.3585 19.0352C19.7908 19.566 19.2214 20.0575 19.0798 20.1388C18.5907 20.4197 17.9893 20.4802 17.5163 20.296C17.4153 20.2567 17.1924 20.2054 17.0211 20.1821C16.3816 20.0949 15.535 19.4888 15.4608 19.0649C15.4168 18.8133 15.5423 18.1785 15.7069 17.8201C15.8888 17.424 16.3209 16.9887 16.6733 16.8464C16.8902 16.7588 16.9969 16.7453 17.3326 16.763C17.5558 16.7748 17.8217 16.8203 17.9333 16.866C18.0434 16.911 18.1576 16.9518 18.1871 16.9567C18.2165 16.9616 18.5139 16.6882 18.8479 16.3493L19.4553 15.7331L19.3506 15.648C19.235 15.5539 18.6696 15.3182 18.2893 15.2056C17.6609 15.0194 16.8108 14.9517 16.1534 15.0354ZM22.6724 15.0156C21.6831 15.1774 20.5147 15.6441 20.0036 16.0814C19.9064 16.1646 19.2106 16.8694 18.4573 17.6474C17.2211 18.9244 17.0878 19.0769 17.0878 19.2147C17.0878 19.4042 17.174 19.499 17.4876 19.6546C17.6846 19.7523 17.8033 19.7767 18.0891 19.778C18.3983 19.7794 18.483 19.7601 18.7343 19.6305C19.0091 19.4888 19.1597 19.3565 20.6287 17.9672C21.3892 17.2478 22.0107 16.9434 22.721 16.9423C23.181 16.9416 23.5074 17.0388 23.8602 17.2815C24.3562 17.6226 24.8549 18.4232 24.9778 19.0754L25.0338 19.3728L25.4551 19.6845C26.3987 20.3828 26.6323 20.7101 26.6294 21.3298C26.6283 21.5861 26.6017 21.7497 26.5358 21.9065C26.409 22.2082 26.1079 22.5049 25.8102 22.6213L25.5648 22.7173L25.5566 22.9686L25.5484 23.2199L25.8289 23.1837C27.4917 22.9692 28.7842 21.9209 29.4611 20.2378C29.7441 19.5342 29.8953 18.8226 29.9715 17.836L30 17.4663H29.6451C28.6629 17.4663 27.791 17.1322 26.7218 16.346C25.3028 15.3027 24.6756 15.0486 23.4289 15.0121C23.0862 15.002 22.7458 15.0036 22.6724 15.0156ZM15.2562 21.6198C15.1264 21.6736 14.2058 22.8269 14.1197 23.0437C14.0537 23.2096 14.1084 23.457 14.2461 23.6154C14.457 23.8581 14.8643 23.968 15.1092 23.8484C15.1736 23.8169 15.4548 23.4831 15.7343 23.1065C16.269 22.3858 16.3093 22.288 16.1997 21.9788C16.0995 21.6965 15.5635 21.4925 15.2562 21.6198ZM16.8557 22.2867C16.7824 22.3325 16.0837 23.2097 15.8219 23.5846C15.6681 23.8049 15.6525 24.0886 15.7837 24.2771C15.9827 24.5628 16.4673 24.7047 16.7584 24.5625C16.8884 24.499 17.7544 23.3614 17.8703 23.1019C18.004 22.8025 17.8445 22.4566 17.5009 22.301C17.3345 22.2256 16.9665 22.2175 16.8557 22.2867ZM18.498 23.0351C18.3774 23.0945 18.1815 23.3106 17.8194 23.7842C17.3321 24.4215 17.3103 24.4593 17.3103 24.672C17.3103 24.9365 17.4155 25.1039 17.6688 25.2424C17.8578 25.3457 18.2384 25.369 18.383 25.2861C18.4863 25.2268 19.3234 24.1139 19.4284 23.8964C19.6826 23.3695 19.0357 22.7707 18.498 23.0351ZM19.9707 23.8903C19.8759 23.917 19.0112 25.016 18.9507 25.1867C18.7844 25.6555 19.4199 26.1572 19.9217 25.9533C20.1025 25.8799 20.2198 25.7517 20.5855 25.2284C20.9621 24.6896 21.009 24.5311 20.8756 24.2506C20.7326 23.9503 20.3288 23.7895 19.9707 23.8903Z" fill="#4359FC"/>
</svg>
